<?xml version="1.0" standalone="no"?><!DOCTYPE svg PUBLIC "-//W3C//DTD SVG 1.1//EN" "http://www.w3.org/Graphics/SVG/1.1/DTD/svg11.dtd"><svg t="1740983504342" class="icon" viewBox="0 0 1024 1024" version="1.1" xmlns="http://www.w3.org/2000/svg" p-id="11081" xmlns:xlink="http://www.w3.org/1999/xlink" width="200" height="200"><path d="M511.386 1.229C228.92 1.229 0 229.922 0 511.977s228.92 510.749 511.386 510.749c282.487 0 511.385-228.694 511.385-510.749S793.851 1.23 511.386 1.23zM796.444 706.65H231.88s-9.74-68.267 0-68.267h564.565v68.267z m0-113.778H227.556v-49.607c0-152.963 117.873-220.183 266.672-229.49-0.114 1.48 0-94.503 0-94.503l-39.14 22.528c-9.807 0-14.2-30.652-14.2-40.596 0-9.945 7.965-17.932 17.773-17.932h106.678c9.83 0 17.772 7.987 17.772 17.932 0 9.944-4.392 40.573-14.222 40.573l-39.117-22.528v94.526c148.799 9.353 266.672 76.527 266.672 229.49v49.607z" p-id="11082"></path></svg>