<?xml version="1.0" standalone="no"?><!DOCTYPE svg PUBLIC "-//W3C//DTD SVG 1.1//EN" "http://www.w3.org/Graphics/SVG/1.1/DTD/svg11.dtd"><svg t="1740983077592" class="icon" viewBox="0 0 1024 1024" version="1.1" xmlns="http://www.w3.org/2000/svg" p-id="2625" xmlns:xlink="http://www.w3.org/1999/xlink" width="200" height="200"><path d="M510.17 613.284c-149.487 0-270.905-121.419-270.905-270.905s121.419-271.516 270.905-271.516 271.516 121.419 271.516 271.516-122.030 270.905-271.516 270.905zM510.17 131.875c-115.929 0-210.502 94.573-210.502 210.502s94.573 210.502 210.502 210.502c115.929 0 210.502-94.573 210.502-210.502 0.609-116.539-93.962-210.502-210.502-210.502z" p-id="2626"></path><path d="M895.783 961.684c-1.83 0-3.051 0-4.881-0.609-16.473-2.441-28.067-18.307-25.017-34.779 1.83-11.593 3.051-23.795 3.051-35.391 0-157.419-160.47-284.941-358.16-284.941-197.689 0-358.16 128.133-358.16 284.941 0 11.593 1.222 23.795 3.051 35.391 2.441 16.473-8.545 31.727-25.017 34.779-16.473 2.441-31.727-8.545-34.779-25.017-2.441-14.643-3.663-29.897-3.663-45.152 0-190.367 187.926-345.345 418.562-345.345s418.562 154.978 418.562 345.345c0 15.252-1.222 29.897-3.663 45.152-2.441 15.252-15.252 25.627-29.897 25.627z" p-id="2627"></path></svg>